<svg xmlns="http://www.w3.org/2000/svg" width="1600" height="1000" viewBox="0 0 1600 1000" role="img" aria-label="CRM Systems">
  <defs>
    <linearGradient id="bg" x1="0" y1="0" x2="1" y2="1">
      <stop offset="0%" stop-color="#070B14"/>
      <stop offset="55%" stop-color="#0B1220"/>
      <stop offset="100%" stop-color="#111827"/>
    </linearGradient>
    <linearGradient id="a" x1="0" y1="0" x2="1" y2="1">
      <stop offset="0%" stop-color="#3B82F6" stop-opacity="0.55"/>
      <stop offset="100%" stop-color="#7C3AED" stop-opacity="0.2"/>
    </linearGradient>
    <pattern id="g" width="48" height="48" patternUnits="userSpaceOnUse">
      <path d="M48 0H0V48" fill="none" stroke="rgba(255,255,255,0.05)" stroke-width="1"/>
    </pattern>
  </defs>
  <rect width="1600" height="1000" fill="url(#bg)"/>
  <rect width="1600" height="1000" fill="url(#a)"/>
  <rect width="1600" height="1000" fill="url(#g)"/>
  <rect x="90" y="90" width="1420" height="820" rx="28" fill="rgba(255,255,255,0.03)" stroke="rgba(255,255,255,0.12)"/>
  <circle cx="130" cy="130" r="7" fill="rgba(255,255,255,0.25)"/>
  <circle cx="158" cy="130" r="7" fill="rgba(255,255,255,0.25)"/>
  <circle cx="186" cy="130" r="7" fill="rgba(255,255,255,0.25)"/>
  <text x="230" y="136" fill="rgba(255,255,255,0.4)" font-family="ui-sans-serif,system-ui" font-size="18" letter-spacing="4">PB IT HUB</text>
  <text x="130" y="230" fill="#FFFFFF" font-family="ui-sans-serif,system-ui" font-size="64" font-weight="700">CRM Systems</text>
  <text x="130" y="280" fill="rgba(255,255,255,0.5)" font-family="ui-sans-serif,system-ui" font-size="24" letter-spacing="3">BUSINESS PLATFORMS</text>
  <rect x="130" y="340" width="320" height="180" rx="18" fill="rgba(255,255,255,0.06)" stroke="rgba(255,255,255,0.1)"/>
  <rect x="470" y="340" width="320" height="180" rx="18" fill="rgba(255,255,255,0.06)" stroke="rgba(255,255,255,0.1)"/>
  <rect x="810" y="340" width="320" height="180" rx="18" fill="rgba(255,255,255,0.06)" stroke="rgba(255,255,255,0.1)"/>
  <rect x="130" y="545" width="1000" height="260" rx="18" fill="rgba(255,255,255,0.04)" stroke="rgba(255,255,255,0.1)"/>
  <rect x="1170" y="545" width="300" height="260" rx="18" fill="#3B82F6" fill-opacity="0.25" stroke="rgba(255,255,255,0.12)"/>
</svg>